<svg width="32" height="32" viewBox="0 0 32 32" fill="none" xmlns="http://www.w3.org/2000/svg">
<path d="M22 14V9C22 7.4087 21.3679 5.88258 20.2426 4.75736C19.1174 3.63214 17.5913 3 16 3C14.4087 3 12.8826 3.63214 11.7574 4.75736C10.6321 5.88258 10 7.4087 10 9V14M9 29H23C23.7956 29 24.5587 28.6839 25.1213 28.1213C25.6839 27.5587 26 26.7957 26 26V17C26 16.2044 25.6839 15.4413 25.1213 14.8787C24.5587 14.3161 23.7956 14 23 14H9C8.20435 14 7.44129 14.3161 6.87868 14.8787C6.31607 15.4413 6 16.2044 6 17V26C6 26.7957 6.31607 27.5587 6.87868 28.1213C7.44129 28.6839 8.20435 29 9 29Z" stroke="#980B1C" stroke-width="2" stroke-linecap="round" stroke-linejoin="round"/>
<path d="M18.0117 20.174H20.5077L18.9172 18.5825C18.4051 18.0704 17.7673 17.7022 17.0678 17.5148C16.3683 17.3274 15.6318 17.3275 14.9323 17.515C14.2329 17.7025 13.5951 18.0708 13.0831 18.5829C12.5711 19.0951 12.203 19.733 12.0157 20.4325M11.4927 25.322V22.826M11.4927 22.826H13.9887M11.4927 22.826L13.0827 24.4175C13.5947 24.9296 14.2326 25.2978 14.9321 25.4852C15.6316 25.6726 16.3681 25.6725 17.0676 25.485C17.767 25.2975 18.4048 24.9292 18.9168 24.4171C19.4288 23.9049 19.7969 23.267 19.9842 22.5675M20.5077 17.678V20.173" stroke="#980B1C" stroke-width="1.5" stroke-linecap="round" stroke-linejoin="round"/>
</svg>
