<svg width="36" height="36" viewBox="0 0 36 36" fill="none" xmlns="http://www.w3.org/2000/svg">
<path fill-rule="evenodd" clip-rule="evenodd" d="M11.2506 9C11.2506 7.20979 11.9618 5.4929 13.2277 4.22703C14.4935 2.96116 16.2104 2.25 18.0006 2.25C19.7908 2.25 21.5077 2.96116 22.7736 4.22703C24.0395 5.4929 24.7506 7.20979 24.7506 9C24.7506 10.7902 24.0395 12.5071 22.7736 13.773C21.5077 15.0388 19.7908 15.75 18.0006 15.75C16.2104 15.75 14.4935 15.0388 13.2277 13.773C11.9618 12.5071 11.2506 10.7902 11.2506 9ZM5.62713 30.1575C5.67771 26.9092 7.00359 23.8111 9.31857 21.5319C11.6336 19.2527 14.7519 17.9752 18.0006 17.9752C21.2493 17.9752 24.3677 19.2527 26.6827 21.5319C28.9977 23.8111 30.3236 26.9092 30.3741 30.1575C30.378 30.3762 30.3181 30.5913 30.2017 30.7764C30.0853 30.9616 29.9174 31.1088 29.7186 31.2C26.0424 32.8856 22.0449 33.7555 18.0006 33.75C13.8216 33.75 9.85113 32.838 6.28263 31.2C6.08386 31.1088 5.916 30.9616 5.79958 30.7764C5.68316 30.5913 5.62323 30.3762 5.62713 30.1575Z" fill="#F2FAFF"/>
</svg>
