<svg width="25" height="32" viewBox="0 0 25 32" fill="none" xmlns="http://www.w3.org/2000/svg">
<path d="M18.2508 6.76923C18.2508 8.29932 17.6449 9.76674 16.5664 10.8487C15.4879 11.9306 14.0252 12.5385 12.5 12.5385C10.9748 12.5385 9.51207 11.9306 8.43359 10.8487C7.35512 9.76674 6.74923 8.29932 6.74923 6.76923C6.74923 5.23913 7.35512 3.77171 8.43359 2.68977C9.51207 1.60783 10.9748 1 12.5 1C14.0252 1 15.4879 1.60783 16.5664 2.68977C17.6449 3.77171 18.2508 5.23913 18.2508 6.76923ZM1 28.4892C1.04928 25.4621 2.28256 22.5756 4.43386 20.4524C6.58517 18.3291 9.48213 17.1392 12.5 17.1392C15.5179 17.1392 18.4148 18.3291 20.5661 20.4524C22.7174 22.5756 23.9507 25.4621 24 28.4892C20.3922 30.1488 16.469 31.0054 12.5 31C8.39625 31 4.50107 30.1015 1 28.4892Z" stroke="#F2FAFF" stroke-width="1.5" stroke-linecap="round" stroke-linejoin="round"/>
</svg>
